<svg width="1671" height="538" viewBox="0 0 1671 538" fill="none" xmlns="http://www.w3.org/2000/svg">
<g clip-path="url(#clip0_1_11)">
<path d="M386.485 289.77C379.91 315.308 389.153 329.791 409.449 329.791C426.505 329.791 447.469 323.216 462.524 317.309L468.432 412.978C450.042 422.792 414.023 435.942 362.186 435.942C282.907 435.942 240.885 387.44 259.942 303.492L286.146 190.766H239.646L261.276 95.002H307.777L330.074 0H452.71L431.079 95.0973H518.935L496.637 190.862H409.449L386.485 289.866V289.77Z" fill="black"/>
<path d="M836.624 426.129H713.989L718.562 406.5C693.692 425.557 662.152 436.039 626.133 436.039C535.038 436.039 477.961 365.24 494.35 260.328C510.74 155.416 588.113 85.2842 682.544 85.2842C730.378 85.2842 762.49 103.675 780.881 135.787L790.028 95.0988H913.236L836.529 426.224L836.624 426.129ZM671.395 333.7C709.415 333.7 744.195 302.255 751.342 260.233C757.916 218.973 732.951 187.433 694.931 187.433C654.243 187.433 623.465 219.545 616.223 260.233C609.648 302.159 631.279 333.7 671.3 333.7H671.395Z" fill="black"/>
<path d="M1276.85 260.895C1260.47 365.807 1183.09 435.939 1088.66 435.939C1040.16 435.939 1008.05 416.881 989.657 384.102L954.21 537.516H831.574L933.818 94.9988H1057.12L1052.55 114.628C1077.42 95.5705 1108.29 85.0889 1144.31 85.0889C1235.4 85.0889 1293.15 155.888 1276.76 260.8L1276.85 260.895ZM1154.31 260.895C1161.56 218.968 1139.93 187.428 1099.24 187.428C1061.89 187.428 1026.44 218.873 1019.86 260.895C1013.29 302.155 1038.25 333.695 1075.61 333.695C1116.87 333.695 1147.74 301.583 1154.31 260.895Z" fill="black"/>
<path d="M1387.29 537.616H1260.08L1334.22 416.981L1278.47 94.4316H1404.35L1427.31 264.902L1532.23 94.4316H1670.58L1387.39 537.616H1387.29Z" fill="black"/>
</g>
<path d="M240.602 94.2607L196.674 285.027H0L120.349 189.644L43.8324 94.2607" fill="black"/>
<defs>
<clipPath id="clip0_1_11">
<rect width="1635.52" height="537.614" fill="white" transform="translate(34.9678)"/>
</clipPath>
</defs>
</svg>
